<svg width="64" height="64" viewBox="0 0 64 64" fill="none" xmlns="http://www.w3.org/2000/svg">
<path d="M34.5447 2.12003C34.0047 2.60003 29.8047 10.935 29.8047 10.935L26.6797 23.54L38.8397 22.425C38.8397 22.425 48.9547 3.61503 49.1597 3.18003C49.5247 2.39003 49.7197 2.06503 48.3247 2.06503C46.9297 2.06003 35.0497 1.67003 34.5447 2.12003Z" fill="#176CC7"/>
<path d="M40.839 21.645C40.234 21.32 22.414 21.04 21.994 21.645C21.614 22.195 21.669 24.71 21.854 25.035C22.039 25.36 28.029 28.145 28.029 28.145L28.024 29.16C28.024 29.16 28.354 29.955 31.694 29.955C35.034 29.955 35.379 29.28 35.379 29.28L35.409 28.255C35.409 28.255 40.654 25.635 40.929 25.405C41.209 25.17 41.444 21.97 40.839 21.645ZM35.349 25.81C35.349 25.81 35.334 25.11 34.989 24.935C34.644 24.76 29.089 24.79 28.619 24.815C28.149 24.84 28.149 25.68 28.149 25.68L24.349 23.83V23.46L38.499 23.56L38.524 23.98L35.349 25.81Z" fill="#FCC417"/>
<path d="M29.6306 25.585C29.1606 25.585 28.8906 26.075 28.8906 26.92C28.8906 27.71 29.1606 28.375 29.7556 28.325C30.2456 28.285 30.4156 27.535 30.3706 26.87C30.3256 26.08 30.2256 25.585 29.6306 25.585Z" fill="#FDFFFF"/>
<path d="M14.4902 45.3601C14.4902 57.3401 25.3202 62.6751 32.5202 62.4201C40.4602 62.1351 49.9702 55.9451 49.3952 44.5151C48.8502 33.6851 39.7402 28.5501 31.8502 28.6051C22.6802 28.6701 14.4902 34.8951 14.4902 45.3601Z" fill="#FCC417"/>
<path d="M32.2652 60.335C32.1402 60.335 32.0102 60.335 31.8852 60.33C28.1352 60.205 24.4302 58.625 21.7202 56C18.8202 53.19 17.2302 49.39 17.2502 45.305C17.2952 35.33 26.0152 30.705 31.9302 30.705H31.9802C39.9952 30.74 46.5752 36.97 46.7602 45.415C46.8402 49.175 45.3002 53.12 42.2802 56.09C39.4602 58.855 35.7202 60.335 32.2652 60.335ZM31.9202 32.365C26.6152 32.365 18.7702 36.705 18.7502 45.305C18.7352 51.735 23.7152 58.345 32.0102 58.625C35.1702 58.725 38.4252 57.515 41.0552 54.93C43.7852 52.245 45.3202 48.785 45.2652 45.435C45.1452 38.17 39.2052 32.39 31.9952 32.36C31.9752 32.36 31.9352 32.365 31.9202 32.365Z" fill="#FA912C"/>
<path d="M28.9094 30.305C28.5644 29.83 24.6544 29.92 20.9594 33.53C17.3944 37.015 17.0094 40.3 17.6944 40.49C18.4694 40.705 19.4144 37.225 22.6794 34.3C25.6794 31.62 29.5994 31.25 28.9094 30.305ZM44.0344 43.24C42.8294 43.41 44.0794 47.02 41.2844 51.06C38.8594 54.565 36.1094 55.835 36.4294 56.605C36.8594 57.635 41.2644 55.07 43.3044 50.89C45.1544 47.105 44.9344 43.11 44.0344 43.24Z" fill="#FEFFFA"/>
<path d="M27.925 38.51C27.665 38.895 27.9 42.27 28.055 42.42C28.355 42.72 30.635 41.645 30.635 41.645L30.55 50.67C30.55 50.67 28.875 50.65 28.7 50.715C28.355 50.845 28.4 54.325 28.655 54.495C28.91 54.665 35.745 54.755 36.005 54.41C36.265 54.065 36.2 51.02 36.08 50.88C35.865 50.62 34.23 50.725 34.23 50.725C34.23 50.725 34.37 37.435 34.325 37.01C34.28 36.585 33.81 36.32 33.25 36.45C32.69 36.58 28.09 38.26 27.925 38.51Z" fill="#FA912C"/>
<path d="M12.7541 1.85996C12.4391 2.14996 24.4841 23.6 24.4841 23.6C24.4841 23.6 26.5041 23.86 31.0141 23.9C35.5241 23.94 37.7591 23.64 37.7591 23.64C37.7591 23.64 28.3941 2.07496 27.8341 1.85996C27.5591 1.74996 23.8491 1.70996 20.2241 1.66996C16.5941 1.62496 13.0541 1.57996 12.7541 1.85996Z" fill="#2E9DF4"/>
</svg>
