<svg width="64" height="64" viewBox="0 0 64 64" fill="none" xmlns="http://www.w3.org/2000/svg">
<path d="M34.5447 2.12003C34.0047 2.60003 29.8047 10.935 29.8047 10.935L26.6797 23.54L38.8397 22.425C38.8397 22.425 48.9547 3.61503 49.1597 3.18003C49.5247 2.39003 49.7197 2.06503 48.3247 2.06503C46.9297 2.06003 35.0497 1.67003 34.5447 2.12003Z" fill="#176CC7"/>
<path d="M40.8395 21.645C40.2345 21.32 22.4145 21.04 21.9945 21.645C21.6145 22.195 21.8295 25.08 21.9745 25.425C22.2345 26.025 27.9895 28.64 27.9895 28.64L27.8795 29.83C27.8795 29.83 28.3495 29.95 31.6945 29.95C35.0395 29.95 35.6995 29.78 35.6995 29.78L35.7095 28.705C35.7095 28.705 40.8895 26.185 41.1495 25.835C41.3695 25.545 41.4445 21.97 40.8395 21.645ZM35.5345 26.205C35.5345 26.205 35.6995 25.47 35.3545 25.3C35.0095 25.125 29.0895 25.205 28.6195 25.23C28.1495 25.255 28.1495 26.095 28.1495 26.095L24.3495 23.83V23.46L38.4995 23.56L38.5245 23.98L35.5345 26.205Z" fill="#CECDD2"/>
<path d="M29.6306 25.585C29.1606 25.585 28.8906 26.075 28.8906 26.92C28.8906 27.71 29.1606 28.375 29.7556 28.325C30.2456 28.285 30.4156 27.535 30.3706 26.87C30.3256 26.08 30.2256 25.585 29.6306 25.585Z" fill="#FDFFFF"/>
<path d="M14.4844 45.945C14.4844 57.925 25.5094 63.01 32.7144 62.795C41.1094 62.545 49.9694 56.175 49.3944 44.745C48.8494 33.915 39.6644 29.1 31.7744 29.155C22.6044 29.225 14.4844 35.48 14.4844 45.945Z" fill="#CECDD2"/>
<path d="M32.2652 60.5651C32.1402 60.5651 32.0102 60.5651 31.8852 60.5601C28.1352 60.4351 24.4302 58.8551 21.7202 56.2301C18.8202 53.4201 17.2302 49.6201 17.2502 45.5351C17.2952 35.5601 26.0152 30.9351 31.9302 30.9351H31.9802C39.9952 30.9701 46.5752 37.2001 46.7602 45.6451C46.8402 49.4051 45.3002 53.3501 42.2802 56.3201C39.4602 59.0851 35.7202 60.5651 32.2652 60.5651ZM31.9202 32.5951C26.6152 32.5951 18.7702 36.9351 18.7502 45.5351C18.7352 51.9651 23.7152 58.5751 32.0102 58.8551C35.1702 58.9551 38.4252 57.7451 41.0552 55.1601C43.7852 52.4751 45.3202 49.0151 45.2652 45.6651C45.1352 38.4001 39.1952 32.6201 31.9852 32.5851C31.9752 32.5851 31.9352 32.5951 31.9202 32.5951Z" fill="#9B9B9D"/>
<path d="M29.0449 30.735C28.6999 30.26 25.1649 30.395 21.3599 33.67C17.5799 36.925 17.0149 40.525 17.6949 40.715C18.4699 40.93 19.4149 37.45 22.6799 34.525C25.6799 31.85 29.7299 31.68 29.0449 30.735ZM43.9399 43.86C42.7349 44.03 43.9849 47.64 41.1899 51.68C38.7649 55.185 36.0149 56.455 36.3349 57.225C36.7649 58.255 41.1699 55.69 43.2099 51.51C45.0549 47.73 44.8349 43.735 43.9399 43.86Z" fill="#FEFFFA"/>
<path d="M12.7541 1.85996C12.4391 2.14996 24.4841 23.6 24.4841 23.6C24.4841 23.6 26.5041 23.86 31.0141 23.9C35.5241 23.94 37.7591 23.64 37.7591 23.64C37.7591 23.64 28.3941 2.07496 27.8341 1.85996C27.5591 1.74996 23.8491 1.70996 20.2241 1.66996C16.5941 1.62496 13.0541 1.57996 12.7541 1.85996Z" fill="#2E9DF4"/>
<path d="M28.4249 43.175C28.9449 43.18 29.4099 42.475 29.8399 42.045C30.7549 41.125 31.7149 40.395 32.8099 41.385C35.4999 43.83 30.0999 46.31 28.0499 49.7C26.5199 52.23 26.2099 54.175 26.6349 54.695C27.0599 55.215 37.4049 55.19 37.5449 54.93C37.6849 54.67 37.8299 51.205 37.5899 51.04C37.3499 50.875 32.2649 50.97 32.2649 50.97C32.2649 50.97 32.6899 49.98 34.4349 48.47C36.3499 46.815 37.8849 44.54 37.4749 41.85C36.6249 36.29 31.0249 36.085 28.5999 38.02C26.2349 39.905 26.7449 43.155 28.4249 43.175Z" fill="#9B9B9D"/>
</svg>
